<svg id="color" enable-background="new 0 0 24 24" viewBox="0 0 24 24" xmlns="http://www.w3.org/2000/svg"><path d="m22.844 12.585c-.17-.372-.17-.799 0-1.172l.894-1.968c.333-.732.348-1.58.04-2.323-.309-.744-.917-1.333-1.671-1.615l-2.024-.76c-.383-.144-.686-.446-.829-.83l-.76-2.024c-.282-.754-.871-1.363-1.614-1.671-.744-.307-1.591-.293-2.324.04l-1.969.895c-.373.169-.801.169-1.172 0l-1.97-.895c-.733-.334-1.58-.348-2.324-.04-.743.309-1.332.918-1.614 1.671l-.76 2.025c-.143.383-.446.686-.829.829l-2.024.76c-.754.283-1.363.871-1.671 1.615s-.293 1.591.04 2.323l.895 1.969c.169.373.169.8 0 1.173l-.895 1.968c-.333.732-.348 1.58-.04 2.323.309.744.917 1.333 1.671 1.615l2.024.76c.383.144.686.446.829.83l.76 2.024c.282.754.871 1.363 1.614 1.671.745.308 1.591.294 2.324-.04l1.969-.895c.373-.169.801-.169 1.172 0l1.969.895c.382.174.795.261 1.208.261.38 0 .76-.074 1.116-.221.743-.308 1.332-.917 1.614-1.67l.76-2.025c.144-.383.446-.686.829-.829l2.024-.76c.754-.283 1.362-.871 1.671-1.615.308-.744.293-1.591-.04-2.323z" fill="#ffbf00"/><path d="m18.787 11.048-2.861 2.932.677 4.149c.046.283-.073.568-.309.734-.129.091-.28.137-.432.137-.125 0-.25-.031-.363-.094l-3.499-1.934-3.499 1.935c-.251.139-.56.123-.795-.043s-.354-.451-.309-.734l.677-4.149-2.861-2.932c-.196-.201-.264-.496-.174-.762.089-.267.319-.46.598-.503l3.923-.6 1.762-3.752c.246-.526 1.111-.526 1.357 0l1.762 3.752 3.923.6c.278.042.509.236.598.503.089.266.021.56-.175.761z" fill="#fafafa"/></svg>